# xmcd
#
# Track frame offsets:
#	150
#	13062
#	30955
#	40140
#	57363
#	74149
#	85103
#	103615
#	122347
#	135936
#	157760
#	169431
#	183150
#	204045
#	216544
#	228297
#	242789
#
# Disc length: 3812 seconds
#
# Revision: 0
# Processed by: cddbd v1.5.2PL0 Copyright (c) Steve Scherf et al.
# Submitted via: dBpowerAMP V4.0
#
DISCID=da0ee211
DTITLE=CANINDÉ - VOZ E VIOLAO AO VIVO 
DYEAR=2006
DGENRE=Acid
TTITLE0=SONHOS
TTITLE1=ROMANCE NO DESERTO
TTITLE2=DEPENDE DE NOS
TTITLE3=DONA
TTITLE4=VOCE E LINDA
TTITLE5=GOSTOSO DEMAIS
TTITLE6=ANOS
TTITLE7=YOLANDA
TTITLE8=PAPEL MACHE
TTITLE9=NENHUM DIA
TTITLE10=AMOR I LOVE YOU
TTITLE11=ABC DO PREGUIÇOSO
TTITLE12=PAIS E FILHOS
TTITLE13=DEVOLVA-ME
TTITLE14=GAROTO DE ALUGUEL
TTITLE15=HOJE A NOITE NAO TEM LUAR
TTITLE16=POUT-POURRI
EXTD=
EXTT0=
EXTT1=
EXTT2=
EXTT3=
EXTT4=
EXTT5=
EXTT6=
EXTT7=
EXTT8=
EXTT9=
EXTT10=
EXTT11=
EXTT12=
EXTT13=
EXTT14=
EXTT15=
EXTT16=
PLAYORDER=
